<?xml version="1.0" encoding="UTF-8"?><svg id="Layer_1" xmlns="http://www.w3.org/2000/svg" viewBox="0 0 2000 1999.99"><path d="m1986.28,934.29l-236.9-578.88c-18.23-44.91-53.67-80.66-98.42-99.27L1074.1,14.28c-44.65-18.85-94.99-19.05-139.8-.56L355.42,250.67c-44.91,18.24-80.66,53.69-99.28,98.44L14.29,925.9c-18.85,44.65-19.06,94.98-.57,139.78l236.91,578.88c18.22,44.92,53.66,80.67,98.41,99.29l576.87,241.85c22.35,9.4,46.34,14.26,70.59,14.28,23.74-.03,47.25-4.69,69.21-13.72l578.9-236.91c44.9-18.23,80.64-53.67,99.25-98.42l241.84-576.85c18.87-44.65,19.08-95,.58-139.81ZM957.38,69.99c14.64-6,30.3-9.08,46.12-9.08,16.16.01,32.16,3.26,47.06,9.54l241.64,101.3c-8.41-1.15-16.93-1.76-25.52-1.73h-533.38c-8.09-.02-16.12.54-24.06,1.55l248.15-101.57Zm-224.13,161.98l533.46.03c32.94-.1,64.54,12.98,87.77,36.34l163.12,163.12c-7.65-2.47-15.8-3.83-24.27-3.84H506.68c-8.49,0-16.66,1.37-24.32,3.85l163.13-163.16c23.23-23.35,54.83-36.43,87.77-36.34Zm774.99,274.7v986.66c0,8.23-6.68,14.9-14.91,14.91H506.68c-8.23-.01-14.89-6.68-14.9-14.91V506.67c0-8.23,6.67-14.9,14.9-14.91h986.66c8.23,0,14.9,6.68,14.91,14.91ZM312.28,372.58c12.41-29.84,36.24-53.47,66.19-65.63l242.41-99.22c-6.75,5.13-13.2,10.71-19.24,16.79l-377.18,377.07c-5.62,5.59-10.79,11.53-15.6,17.72l103.43-246.73Zm119.15,1144.99l-163.09-163.1c-23.36-23.23-36.44-54.85-36.34-87.79v-533.38c-.1-32.94,12.99-64.55,36.34-87.78l163.11-163.14c-2.48,7.66-3.84,15.82-3.85,24.3v986.66c.01,8.46,1.36,16.6,3.83,24.24Zm-260-227.3l-101.34-247.64c-12.32-29.87-12.19-63.42.36-93.19l101.18-241.35c-1.11,8.29-1.71,16.69-1.69,25.15v533.45c-.02,7.93.52,15.79,1.49,23.58Zm201.18,397.44c-29.84-12.4-53.47-36.24-65.62-66.19l-99.05-242.03c5.05,6.61,10.53,12.94,16.5,18.88l377.15,377.21c5.55,5.58,11.45,10.72,17.6,15.5l-246.58-103.37Zm670.04,242.23c-29.86,12.33-63.42,12.19-93.18-.4l-241.22-101.12c8.24,1.1,16.59,1.7,25,1.67h533.46c7.94.02,15.82-.52,23.61-1.5l-247.68,101.35Zm224.02-161.92h-533.38c-32.94.1-64.54-12.99-87.77-36.34l-163.11-163.12c7.65,2.47,15.8,3.82,24.26,3.83h986.66c8.45-.01,16.59-1.36,24.23-3.82l-163.11,163.11c-23.23,23.35-54.83,36.43-87.77,36.34Zm421.06-140.6c-12.41,29.84-36.25,53.47-66.19,65.63l-242.17,99.1c6.65-5.07,13.01-10.59,18.98-16.59l377.15-377.15c5.66-5.63,10.88-11.63,15.72-17.87l-103.49,246.88Zm-119.19-1145.02l163.08,163.07c23.35,23.24,36.43,54.84,36.34,87.78v533.45c.09,32.94-12.99,64.55-36.34,87.79l-163.06,163.06c2.46-7.64,3.81-15.77,3.82-24.23V506.67c-.01-8.47-1.37-16.63-3.84-24.28Zm206.96,119.3l-377.17-377.17c-5.68-5.71-11.72-10.96-18.03-15.84l247.11,103.59c29.84,12.41,53.47,36.24,65.62,66.19l99.19,242.39c-5.11-6.72-10.67-13.14-16.72-19.16Zm154.03,448.87l-101.23,241.51c1.13-8.35,1.73-16.81,1.71-25.34v-533.38c.02-8.05-.53-16.03-1.54-23.93l101.46,247.93c12.32,29.87,12.18,63.44-.4,93.21Z"/></svg>